<?xml version="1.0" encoding="iso-8859-1"?>
<!-- Generator: Adobe Illustrator 21.0.0, SVG Export Plug-In . SVG Version: 6.00 Build 0)  -->
<svg xmlns="http://www.w3.org/2000/svg" xmlns:xlink="http://www.w3.org/1999/xlink" version="1.1" id="Capa_1" x="0px" y="0px" viewBox="0 0 512 512" style="enable-background:new 0 0 512 512;" xml:space="preserve" width="512" height="512">
<g>
	<g>
		<path d="M60,166c-33.084,0-60-26.916-60-60s26.916-60,60-60s60,26.916,60,60S93.084,166,60,166z M60,76c-16.542,0-30,13.458-30,30    s13.458,30,30,30s30-13.458,30-30S76.542,76,60,76z"/>
	</g>
	<g>
		<path d="M60,316c-33.084,0-60-26.916-60-60s26.916-60,60-60s60,26.916,60,60S93.084,316,60,316z M60,226    c-16.542,0-30,13.458-30,30s13.458,30,30,30s30-13.458,30-30S76.542,226,60,226z"/>
	</g>
	<g>
		<path d="M60,466c-33.084,0-60-26.916-60-60s26.916-60,60-60s60,26.916,60,60S93.084,466,60,466z M60,376    c-16.542,0-30,13.458-30,30s13.458,30,30,30s30-13.458,30-30S76.542,376,60,376z"/>
	</g>
	<g>
		<path d="M497,166H165c-8.284,0-15-6.716-15-15V61c0-8.284,6.716-15,15-15h332c8.284,0,15,6.716,15,15v90    C512,159.284,505.284,166,497,166z M180,136h302V76H180V136z"/>
	</g>
	<g>
		<path d="M497,316H165c-8.284,0-15-6.716-15-15v-90c0-8.284,6.716-15,15-15h332c8.284,0,15,6.716,15,15v90    C512,309.284,505.284,316,497,316z M180,286h302v-60H180V286z"/>
	</g>
	<g>
		<path d="M497,466H165c-8.284,0-15-6.716-15-15v-90c0-8.284,6.716-15,15-15h332c8.284,0,15,6.716,15,15v90    C512,459.284,505.284,466,497,466z M180,436h302v-60H180V436z"/>
	</g>
</g>















</svg>
